<?xml version="1.0" encoding="UTF-8" standalone="no"?>
<svg id="svg4223" xmlns:rdf="http://www.w3.org/1999/02/22-rdf-syntax-ns#" xmlns="http://www.w3.org/2000/svg" height="647.94mm" width="475.11mm" version="1.1" xmlns:cc="http://creativecommons.org/ns#" xmlns:dc="http://purl.org/dc/elements/1.1/" viewBox="0 0 1683.4652 2295.8634">
<g id="layer1" transform="translate(850.3 689.86)">
<g id="g4200" style="image-rendering:optimizeQuality;shape-rendering:geometricPrecision" fill-rule="evenodd" clip-rule="evenodd" transform="translate(-1209.8 -1113.5)">
<g>
<path id="path4171" d="m1200.8 2417.3c-28.764 2.9231-54.626 17.835-78.024 33.856-5.65 4.3279-2.4214 12.495-3.1126 18.622 0.085 16.437 6.1123 35.223 22.284 42.386 18.251 8.3167 38.71 2.8903 57.566 0.3437 11.736 0.1813 23.126 3.9131 34.943 3.8516 15.615 1.2479 32.933-3.7821 41.623-17.709 7.9701-12.87 6.7298-28.975 6.1503-43.483-3.2438-5.9362-10.735-8.902-16.099-13.095-19.253-12.126-40.683-22.098-63.466-24.758-0.6221-0.031-1.2449-0.017-1.8672-0.014z" fill="#b99470"/>
<path id="path4157" d="m1530.6 984.42c-21.439 2.0071-41.69 9.9485-62.67 14.441-45.526 11.468-92.245 18.535-139.29 19.357-78.983 2.6933-158.09 0.8853-237.12 0.2713-47.706-0.5968-95.621-3.6151-141.77-16.204-25.52-5.961-50.693-14.31-76.734-17.857-17.868-1.9889-34.507 12.651-36.576 30.186-4.4637 21.827-7.7367 44.694-20.529 63.475-6.0131 10.41-14.848 19.174-20.415 29.693 4.7498 11.755 14.313 21.421 19.874 33.014 22.986 40.284 28.765 90.489 13.1 134.33-11.966 35.885-35.51 66.721-60.846 94.433-2.3087 6.4728 6.2872 9.002 9.6668 12.836 12.957 11.876 29.557 23.518 32.32 42.17 0.5305 3.4011 0.0438 9.1812-4.8496 6.5371-18.124-3.492-35.512-11.923-54.381-10.408-26.687-0.6726-54.242-1.0936-79.502 8.8652-29.593 9.4434-54.84 28.128-82.604 41.438-35.804 16.191-76.74 19.725-114.71 10.492-18.319-3.5986-42.889-15.474-60.412-21.39-5.8452 0.8488-4.2048 8.1221-1.0644 11.062 36.253 50.57 91.678 98.849 149.66 122.59 30.902 14.212 60.545 31.972 93.445 41.278 43.784 8.609 87.74-6.2724 127.63-23.21 11.076-4.7058 21.706-11.43 33.4-13.906 3.8343 3.9288-0.3817 10.363-0.2872 15.106-13.64 82.515 2.3545 168.75 41.336 242.45 12.019 23.73 27.392 45.471 42.714 67.123 24.898 38.767 32.82 85.119 34.518 130.42 1.4717 46.274 4.197 92.511 3.7773 138.81-0.47975 18.103-0.50984 36.949-9.5078 53.148-2.5502 5.9815-6.8123 11.277-8.9883 17.303 6.0639 28.344 20.457 54.215 37.832 77.102 2.1895 3.5866 5.893 9.776 10.748 7.4102 9.5441-14.058 19.111-28.165 31.182-40.228 10.793-11.831 23.536-22.117 33.238-34.788 0.9636-14.055-0.8144-31.058 10.023-41.852 10.356-8.416 24.753-2.2479 34.684 3.8481 22.025 14.444 42.13 33.882 52.417 58.511 5.5717 15.147 2.5234 32.677-8.8965 44.242-6.8782 8.3558-16.59 13.494-25.033 19.885-11.275 11.051-21.628 24.432-25.248 40.02 0.5096 8.7557 8.6171 14.264 12.771 21.367 8.4328 10.384 15.353 22.805 26.551 30.454 9.3111 2.935 15.581-6.9705 23.226-10.354 18.303-10.857 38.179-21.004 59.54-24.461 27.847-2.6994 54.755 10.545 77.594 25.338 6.8338 4.106 14.092 10.303 22.557 9.0977 12.711-9.553 20.655-23.822 30.472-35.934 3.8854-6.2748 11.025-13.534 7.0552-21.347-4.8948-12.326-13.045-23.031-21.283-33.24-5.8243-6.0355-14.662-7.5705-20.576-13.648-13.063-10.133-21.834-26.984-17.629-43.646 5.2677-24.911 24.549-43.902 43.762-59.195 11.22-8.3978 25.193-17.058 39.787-14.225 11.054 4.5101 13.648 18.077 14.699 28.732 0.161 8.8491-0.677 19.344 7.1894 25.383 9.5043 8.4789 19.781 16.047 27.941 25.975 10.55 11.422 18.68 24.869 28.405 36.867 4.2685 3.6276 9.7297-0.01 11.834-4.2276 17.736-21.937 31.617-47.672 37.568-75.341-0.3227-10.015-9.1913-16.837-11.529-26.314-8.5222-23.362-8.5401-48.564-6.4024-73.109 3.294-59.33 0.5504-119.3 11.93-177.81 6.5904-30.652 21.014-59.361 40.16-84.142 26.925-37.622 47.824-79.585 60.245-124.21 14.337-48.328 17.039-99.456 12.402-149.45-0.5966-9.8662-3.2818-19.62-3.993-29.371 1.1342-5.002 6.6154 0.5266 9.4305 0.8714 33.633 14.828 67.729 31.229 104.7 35.652 26.881 1.5303 55.54 1.6523 79.715-11.954 27.394-13.93 54.738-27.798 82.781-40.215 49.217-24.668 97.06-69.379 128.04-114.63 2.5802-4.1314-1.5098-9.9536-6.3027-7.418-19.159 5.6576-43.735 19.045-63.712 21.464-36.705 6.0902-74.994 2.7089-108.55-13.954-28.1-13.662-53.849-32.543-84.238-41.169-42.075-13.322-88.374-11.314-129.64 3.9238-4.8839 1.1781-4.7595-4.5835-4.3457-7.8145 1.8799-15.485 14.847-26.362 25.394-36.523 5.8361-5.3882 13.77-9.3903 17.566-16.459-11.654-16.217-26.837-29.903-37.119-47.242-20.106-30.051-34.604-65.275-33.26-101.92-0.047-33.349 10.599-66.152 29.248-93.863 3.9844-6.9535 9.7535-13.331 12.147-20.93-8.1817-13.29-19.208-24.778-25.48-39.266-8.2497-16.086-11.923-34.043-14.418-51.828-2.8262-15.231-14.046-30.644-30.582-31.729-1.9149-0.19452-3.8424-0.24453-5.7656-0.18164zm142.38 492.85c47.115-0.1199 92.958 15.698 134.74 36.924 7.088 3.1736 2.881 1.9227-2.3143 0.2189-40.846-12.178-82.099-25.145-124.86-28.091-15.038-0.4928-32.535 1.3275-43.216 13.001-4.1118 10.476 2.2701 22.282 9.9922 29.344 14.761 12.37 35.228 9.0689 52.913 8.2457 10.298-0.5493 20.659-0.9747 30.765 0.5434-27.488 12.676-58.845 9.9926-87.52 4.0351-20.332-4.7224-42.588-11.932-56.506-28.828-3.7839-5.7633 1.7605-11.119 6.084-14.449 14.033-12.91 32.733-20.038 51.756-20.242 9.2452-0.6443 18.746-0.6474 28.162-0.7012zm-948.51 0.3477c21.245 1.0741 43.297-1.2308 63.512 6.1992 10.342 5.1627 20.827 11.719 27.574 21.266 2.6025 9.9254-8.1269 15.968-15.102 20.395-28.106 16.605-61.53 20.663-93.634 21.075-12.436-0.044-24.188-3.663-35.27-8.9661 24.166-1.7548 48.961 1.4106 73.074-2.4101 13.44-4.4798 22.451-19.082 21.971-32.941-3.327-10.98-16.83-13.223-26.65-14.438-41.636-4.0742-82.327 9.0778-121.83 20.396-9.6991 2.9072-19.378 5.8807-29.068 8.8169 42.063-21.407 87.654-39.638 135.43-39.393zm169.14 26.734c25.032 9.9632 47.716 24.981 69.768 40.258 31.185 22.666 57.349 53.883 68.707 91.297 9.5318 30.222 11.819 62.064 18.8 93.036 3.1654 21.987 0.6501 45.738-9.4577 65.821-4.9484-0.3001-2.3429-6.8553-2.5883-10.002 2.0616-17.77 2.5688-36.021-1.7269-53.595-2.1822-8.8491-4.226-18.179-8.8587-26.017-40.223-19.992-82.753-41.114-109.72-78.502-18.275-25.884-26.615-57.883-25.626-89.388-0.26579-10.955-0.73789-22.048 0.70195-32.909zm616.24 0.248c1.8319 10.326-0.1671 21.024 0.1551 31.424-0.5787 24.516-3.5606 49.714-15.378 71.7-18.52 38.928-55.452 63.761-92.326 83.338-12.94 6.4545-29.223 12.119-34.023 27.406-6.8307 18.721-3.4616 39.041-4.8474 58.428-0.1028 5.9492 0.2667 12.197-0.5491 17.865-6.1242-3.0137-5.6536-11.444-7.9911-17.033-5.3771-18.821-6.6241-39.056-1.0826-58.055 6.7282-36.583 9.779-74.614 26.763-108.1 18.33-37.551 51.234-65.473 86.988-85.889 13.447-8.085 27.516-16.228 42.291-21.087z" fill="#cd792d"/>
<path id="path4165" d="m1324 2253.9c-17.539 0.8763-28.37 18.058-32.648 33.392-4.8086 15.271-8.289 34.777 3.7832 47.656 13.576 15.693 29.753 29.825 38.027 49.339 26.457 53.214 19.235 121.3-18.978 167.19-28.829 35.34-73.773 57.795-119.54 56.154-58.237-4.066-111.3-44.912-131.13-99.264-20.139-52.983-9.621-118.03 30.76-159.04 8.5516-9.8669 21.421-19.046 21.113-33.525 0.4379-18.535-4.964-37.81-16.758-52.295-9.3413-10.389-26.337-12.908-37.596-4.1015-10.723 7.7761-20.304 17-31.141 24.656-24.328 18.891-44.561 42.794-59.074 69.967-34.893 63.313-38.113 143.24-6.9048 208.65 34.062 73.504 105.71 126.45 184.54 142.57 74.995 16.637 156.08-4.4139 216.47-51.075 58.702-44.666 96.934-117.12 95.055-191.45-0.076-62.332-27.396-124.01-72.92-166.46-15.657-13.874-32.311-26.684-49.113-39.08-4.2549-2.2821-9.1044-3.5042-13.941-3.2773z" fill="#ccc"/>
<path id="path4177" d="m1924.9 432.39c-42.108 0.0298-86.006 16.29-112.09 50.537-29.938 38.068-39.558 87.927-40.281 135.31-2.3862 63.699 9.4473 127 26.672 188.07 9.697 35.364 23.038 69.546 34.83 104.22 6.3573 19.09 8.6668 39.282 8.6352 59.31 1.1265 26.827-3.7078 53.857-14.274 78.623-18.276 44.636-54.942 84.296-102.74 96.272-27.187 6.2805-57.069 4.1686-81.946-8.8308-10.714-6.2729-19.258-16.247-30.885-20.812-7.2521 1.2813-8.5984 10.133-13.032 14.835-23.61 36.216-36.054 81.435-26.212 124.28 9.746 45.523 37.813 85.029 71.482 116.26 17.779 1.1173 35.991 0.01 53.939 0.074 32.002-0.3777 64.2-1.4709 95.503-8.7566 59.102-12.233 116.35-40.018 156.81-85.642 45.058-50.392 69.967-116.14 79.513-182.42 4.0124-32.142 4.3826-64.896 0.059-97.026-5.9851-44.407-23.835-85.951-43.132-126-29.973-63.518-65.272-124.61-90.896-190.08-11.267-30.367-17.822-62.871-14.227-95.077 3.2811-42.561 19.618-85.447 51.706-114.66 10.79-10.271 26.227-18.453 38.567-26.595 3.6555-2.7155 2.4885-9.257-2.5922-9.0936-14.101-2.3434-31.134-2.8618-45.415-2.7953z" fill="#dfc4a0"/>
<path id="path4179" d="m474.69 432.4c-14.769 0.81219-32.405-0.32455-46.533 4.508-4.0142 2.7756-0.93257 8.8759 3.4004 8.959 25.757 14.757 51.779 35.081 65.473 61.947 23.598 43.006 30.406 94.733 17.879 142.19-12.843 51.731-39.737 98.49-62.989 146.09-21.265 42.805-44.169 84.978-61.447 129.61-15.561 41.136-23.84 85.203-21.817 129.25 1.8727 60.988 18.433 121.75 48.734 174.76 26.476 45.821 66.493 83.861 114.52 106.38 50.229 24.22 106.37 34.377 161.88 34.361 21.023 0.2953 42.25 0.9779 63.14-1.1519 9.8823-4.5451 15.536-14.576 23.058-21.987 30.575-35.534 53.815-80.65 52.106-128.59-1.2162-38.106-17.775-74.332-40.117-104.57-5.5526-3.3756-9.3335 4.197-13.254 6.8457-17.792 17.543-42.6 26.692-67.325 26.708-20.304 1.6006-40.841-2.4691-58.972-11.941-41.993-21.054-72.262-61.899-85.045-106.59-12.191-40.216-10.848-84.079 2.8795-123.94 10.811-32.705 24.019-64.687 32.74-98.112 20.689-73.327 33.873-150.42 24.449-226.64-5.5583-42.867-21.489-86.723-54.971-115.67-26.815-23.058-62.958-32.633-97.795-32.414z" fill="#dfc4a1"/>
</g>
<path id="path4151" d="m472.76 526.5c-19.629-0.001-41.169 2.5819-64.717 7.8203-3.208 0.7086-5.2347 3.8858-4.5273 7.0938 0.4411 1.992 1.8357 3.5313 3.5957 4.2422v0.006c34.73 13.973 59.398 33.858 76.152 58.279 16.811 24.505 25.781 53.703 29.043 86.182 6.352 63.24-31.404 135.32-70.721 210.38-1.5456 2.9509-3.0927 5.9211-4.6406 8.8809h-0.004c-25.221 48.223-50.415 97.572-64.783 147.1-14.843 51.17-15.387 102.76-7.875 149.66 9.595 59.907 32.369 112.28 55.262 146.37 30.971 46.125 73.026 81.461 129.17 103.68 55.29 21.883 124.23 31.006 209.68 25.133 19.288 14.85 30.693 24.947 36.865 32.961 2.9988 3.894 4.643 7.234 5.3379 10.43-29.81-11.256-61.008-13.815-90.922-10.055-36.915 4.64-71.96 18.909-100.07 38.291-28.409 19.589-61.91 28.333-96.848 27.648-36.967-0.723-75.585-12.001-111.58-32.162-2.8732-1.6091-6.5108-0.586-8.1211 2.2871-1.1269 2.0126-0.95973 4.4036 0.22657 6.207 21.491 34.312 45.807 64.751 73.758 90.09 28.083 25.463 59.77 45.719 95.85 59.529 13.198 5.051 24.821 11.429 36.197 17.67 45.25 24.825 86.879 47.645 208.3-11.102-5.4388 30.794-6.7416 62.176-4.2285 93.328 2.909 36.112 10.938 71.935 23.562 106.19 7.217 19.591 15.992 38.749 26.217 57.227 10.15 18.338 21.67 35.886 34.455 52.391 28.092 36.27 42.472 102.34 39.277 170.08-2.906 61.64 19.594 124.36-15.408 166.92-1.2297 1.496-1.6004 3.4085-1.1856 5.1582h-0.006c8.01 33.264 23.18 64.587 44.742 87.666 1.9508 2.0903 3.9585 4.1054 6.0156 6.0528-3.8304 7.421-7.2842 15.044-10.338 22.842-10.657 27.211-16.473 56.573-16.473 87.174 0 69.85 30.241 133.12 79.191 179.09 48.203 45.26 114.58 73.726 188.06 75.125 73.482-1.3994 139.86-29.865 188.06-75.125 48.951-45.967 79.191-109.24 79.191-179.09 0-30.601-5.8156-59.963-16.473-87.174-3.0537-7.7977-6.5075-15.421-10.338-22.842 2.0571-1.9474 4.0648-3.9625 6.0156-6.0528 21.562-23.079 36.732-54.402 44.742-87.666h-0.01c0.4148-1.7497 0.044-3.6622-1.1855-5.1582-35.002-42.555-12.502-105.28-15.408-166.92-3.1943-67.738 11.185-133.81 39.277-170.08 12.785-16.505 24.305-34.053 34.455-52.391 10.225-18.478 19-37.636 26.217-57.227 12.624-34.254 20.654-70.077 23.562-106.19 2.5131-31.152 1.2103-62.534-4.2285-93.328 121.42 58.747 163.05 35.927 208.3 11.102 11.376-6.2411 22.999-12.619 36.197-17.67 36.08-13.81 67.767-34.066 95.85-59.529 27.951-25.339 52.267-55.778 73.758-90.09 1.1863-1.8034 1.3535-4.1944 0.2266-6.207-1.6103-2.8731-5.2479-3.8962-8.1211-2.2871-35.995 20.161-74.613 31.439-111.58 32.162-34.938 0.6846-68.439-8.0598-96.848-27.648-28.11-19.382-63.155-33.651-100.07-38.291-29.914-3.76-61.112-1.2018-90.922 10.055 0.6948-3.1957 2.339-6.5357 5.3378-10.43 6.1726-8.0137 17.577-18.111 36.865-32.961 85.454 5.8731 154.39-3.2501 209.68-25.133 56.144-22.221 98.199-57.557 129.17-103.68 22.893-34.09 45.667-86.462 55.262-146.37 7.512-46.903 6.9684-98.49-7.875-149.66-15.25-52.567-42.695-104.95-69.424-155.98-39.317-75.056-77.073-147.14-70.721-210.38 3.2617-32.479 12.232-61.677 29.043-86.182 16.754-24.421 41.422-44.306 76.152-58.279v-0.006c1.76-0.71086 3.1546-2.2502 3.5957-4.2422 0.7074-3.208-1.3194-6.3852-4.5274-7.0938-23.548-5.2385-45.087-7.8213-64.717-7.8203v0.002c-25.238-0.0785-47.318 3.9087-66.441 11.412-25.149 9.8686-45.15 25.768-60.478 46.471-15.176 20.498-25.713 45.677-32.088 74.332-20.239 90.975 1.5585 217.7 49.809 340.67 22.058 56.221 17.532 112.22-2.9902 156.39-8.7051 18.739-20.283 35.338-33.912 48.896-13.553 13.485-29.138 23.97-45.943 30.562-27.59 10.826-58.573 11.149-89.336-2.9844-21.775-15.201-39.323-32.042-51.678-50.893-12.302-18.773-19.49-39.602-20.596-62.869h-0.01c-0.017-0.3303-0.056-0.6679-0.1289-1.0039-3.6571-16.374-11.011-27.424-21.742-33.607-10.592-6.1017-24.083-7.1794-40.197-3.7051-0.1566 0.033-0.3105 0.069-0.4648 0.1152-45.87 13.658-90.49 23.825-135.72 29.369-44.381 5.442-129.33 6.4349-176.59 1.9257-47.265 4.5092-132.21 3.5163-176.59-1.9257-45.229-5.544-89.849-15.711-135.72-29.369-0.15428-0.046-0.30827-0.082-0.46484-0.1152-16.114-3.4743-29.605-2.3966-40.197 3.7051-10.731 6.183-18.085 17.233-21.742 33.607-0.0732 0.336-0.11177 0.6736-0.12891 1.0039h-0.01c-1.106 23.267-8.2937 44.096-20.596 62.869-12.355 18.851-29.903 35.692-51.678 50.893-30.763 14.133-61.746 13.81-89.336 2.9844-16.805-6.593-32.39-17.078-45.943-30.562-13.629-13.559-25.207-30.158-33.912-48.896-20.522-44.17-25.048-100.17-2.9902-156.39 11.759-29.97 21.933-60.16 30.324-90.004 26.039-92.61 34.791-181.86 19.484-250.67-6.375-28.655-16.912-53.834-32.088-74.332-15.328-20.703-35.33-36.602-60.479-46.471-19.124-7.5034-41.203-11.491-66.441-11.412zm1.0977 11.863c23.231 0.0422 43.506 3.7381 61.02 10.609 22.97 9.013 41.241 23.539 55.246 42.457 14.157 19.122 24.022 42.774 30.037 69.805 15.06 67.697 6.0108 156.2-20.264 248.15-8.1092 28.379-17.839 57.084-29.033 85.611-23.343 59.5-18.508 118.85 3.2715 165.73 9.301 20.022 21.709 37.793 36.338 52.35 14.705 14.631 31.671 26.029 50.008 33.225 30.559 11.99 64.846 12.341 98.83-3.3379 0.43546-0.1692 0.85505-0.3942 1.2539-0.6719 10.492-7.298 20.073-14.976 28.66-23.082 31.695 42.262 43.388 83.587 38.961 123.18-4.98 44.555-30.337 87.288-70.541 126.98-83.61 5.75-150.84-3.0869-204.53-24.336-53.785-21.289-94.046-55.092-123.66-99.193-22.096-32.91-44.094-83.553-53.393-141.61-7.2613-45.344-6.7562-95.165 7.5488-144.47 14.592-50.293 40.867-100.95 66.748-150.37 0.5955-1.1372 1.1921-2.2821 1.7871-3.418 40.164-76.68 78.736-150.31 72.029-217.06-3.458-34.425-13.041-65.488-31.049-91.736-15.13-22.05-36.12-40.618-64.32-54.832 16.109-2.71 31.112-3.9999 45.051-3.9746zm1454.8 0c13.938-0.0253 28.942 1.2646 45.051 3.9746-28.2 14.214-49.19 32.782-64.32 54.832-18.008 26.248-27.591 57.311-31.049 91.736-6.7063 66.746 31.865 140.38 72.029 217.06 26.451 50.497 53.607 102.34 68.535 153.79 14.305 49.306 14.81 99.127 7.5488 144.47-9.2983 58.056-31.297 108.7-53.393 141.61-29.614 44.101-69.875 77.904-123.66 99.193-53.691 21.249-120.92 30.086-204.53 24.336-40.204-39.691-65.561-82.424-70.541-126.98-4.4274-39.593 7.2662-80.918 38.961-123.18 8.5874 8.1063 18.168 15.784 28.66 23.082 0.3989 0.2777 0.8185 0.5027 1.2539 0.6719 33.984 15.679 68.271 15.328 98.83 3.3379 18.337-7.1954 35.303-18.594 50.008-33.225 14.629-14.557 27.037-32.328 36.338-52.35 21.779-46.881 26.614-106.23 3.2715-165.73-47.463-120.96-69.005-245.17-49.297-333.76 6.0149-27.031 15.88-50.683 30.037-69.805 14.005-18.918 32.276-33.444 55.246-42.457 17.514-6.8712 37.788-10.567 61.02-10.609zm-1056.6 551.74c4.196 0.051 8.7579 0.6075 13.672 1.6524 46.44 13.821 91.638 24.109 137.47 29.726 44.772 5.4905 130.21 6.5077 178.04 2.0254 47.83 4.4823 133.26 3.4651 178.04-2.0254 45.831-5.6171 91.029-15.906 137.47-29.726 13.104-2.7863 23.706-2.1052 31.535 2.4042 7.6411 4.4036 13.024 12.741 15.932 25.369 1.2926 25.321 9.1298 47.959 22.48 68.332 5.21 7.9509 11.259 15.551 18.08 22.824-34.438 45.33-47.119 89.987-42.307 133.02 5.1681 46.217 30.55 90.225 70.787 130.91-17.987 14.019-29.019 24.004-35.447 32.348-7.9566 10.335-9.3135 18.336-7.6484 27.58 0.5794 3.2343 3.6739 5.388 6.9082 4.8086 0.4697-0.083 0.9118-0.2196 1.3301-0.4024 30.131-13.154 62.224-16.34 92.973-12.475 34.975 4.3954 68.157 17.9 94.75 36.236 30.559 21.072 66.474 30.479 103.85 29.746 32.083-0.6286 65.228-8.7311 96.953-23.344-17.84 25.931-37.52 49.16-59.449 69.041-26.968 24.451-57.417 43.914-92.113 57.193-13.925 5.3288-25.936 11.92-37.693 18.369-43.705 23.979-83.794 45.974-208.01-16.633-2.9383-1.4823-6.5247-0.2999-8.0059 2.6387-0.6354 1.2592-0.7837 2.6388-0.5117 3.9199 7.1086 33.415 9.0576 67.744 6.3067 101.83-2.8229 35.019-10.612 69.773-22.861 103.01-7.0674 19.184-15.576 37.795-25.424 55.592-9.7966 17.701-20.993 34.734-33.477 50.852-29.781 38.449-45.069 107.54-41.75 177.92 2.9611 62.832-19.269 126.98 16.223 171.58-7.7051 30.266-21.656 58.569-41.191 79.48-1.0606 1.136-2.1407 2.241-3.2344 3.3301-8.8937-15.304-19.424-29.664-31.375-42.883-9.7635-10.799-21.044-19.524-32.422-28.322l-0.066-0.051c5.5371-59.965-25.727-59.576-56.605-37.174-45.411 32.95-75.411 85.896-15.266 119.61 4.5029 2.5059 15.356 14.401 16.811 16.588 5.3783 8.1966 9.9585 16.964 13.641 26.197-7.0983 7.616-13.121 16.153-18.713 24.076-9.1851 13.008-17 24.067-24.857 23.992-14.368-11.333-28.918-20.161-43.318-26.465-14.355-6.2827-28.572-10.071-42.318-11.356-13.746 1.2848-27.963 5.0728-42.318 11.356-14.4 6.304-28.95 15.132-43.318 26.465-7.857 0.075-15.672-10.984-24.858-23.992-5.592-7.923-11.614-16.46-18.713-24.076 3.6821-9.233 8.2623-18.001 13.641-26.197 3.3727-3.6068 12.852-14.481 16.81-16.588 60.145-33.713 30.145-86.659-15.266-119.61-30.878-22.402-62.143-22.791-56.606 37.174l-0.066 0.051c-11.378 8.798-22.658 17.523-32.422 28.322-11.951 13.219-22.481 27.579-31.375 42.883-1.0937-1.0891-2.1738-2.1941-3.2344-3.3301-19.535-20.911-33.486-49.214-41.191-79.48 35.492-44.6 13.262-108.75 16.223-171.58 3.319-70.38-11.969-139.47-41.75-177.92-12.484-16.118-23.68-33.151-33.477-50.852-9.848-17.797-18.356-36.408-25.424-55.592-12.249-33.237-20.038-67.991-22.861-103.01-2.7509-34.086-0.80196-68.415 6.3066-101.83h-0.002c0.272-1.2811 0.12372-2.6606-0.51171-3.9199-1.4812-2.9385-5.0676-4.121-8.0059-2.6387-124.22 62.607-164.3 40.612-208.01 16.633-11.757-6.449-23.768-13.04-37.693-18.369-34.696-13.279-65.145-32.742-92.113-57.193-21.929-19.881-41.609-43.11-59.449-69.041 31.725 14.613 64.87 22.715 96.953 23.344 37.378 0.733 73.293-8.6741 103.85-29.746 26.593-18.336 59.775-31.841 94.75-36.236 30.749-3.865 62.842-0.6794 92.973 12.475h0.002c0.4183 0.1828 0.86037 0.319 1.3301 0.4024 3.2343 0.5794 6.3288-1.5743 6.9082-4.8086 1.6651-9.244 0.30816-17.245-7.6484-27.58-6.428-8.344-17.46-18.329-35.447-32.348 40.237-40.685 65.619-84.693 70.787-130.91 4.812-43.033-7.8686-87.69-42.307-133.02 6.8207-7.2732 12.87-14.873 18.08-22.824 13.351-20.373 21.188-43.011 22.48-68.332 2.908-12.628 8.2905-20.966 15.932-25.369 4.8931-2.8184 10.87-4.141 17.863-4.0566zm-139.57 485.91c-56.073 0.3311-112.76 20.099-170.37 55.441h0.004c92.425-28.911 176.06-56.709 202.76-26.6-9.2011 55.542-63.572 21.246-103.89 34.127 27.994 16.442 55.617 16.474 87.135 10.801 17.618-3.1691 35.547-6.9674 55.092-18.9 26.325-16.069 19.532-28.493-2.7051-40.08-3.9977-2.0823-7.8932-7.5015-12.145-8.498-18.565-4.3515-37.187-6.291-55.879-6.291zm937.49 0c-18.69-0.1101-37.311 1.9398-55.875 6.291-4.2513 0.9965-8.1468 6.4157-12.144 8.498-22.237 11.587-29.03 24.011-2.7051 40.08 19.545 11.933 37.474 15.731 55.092 18.9 31.518 5.673 59.141 5.6412 87.135-10.801-40.319-12.881-94.69 21.415-103.89-34.127 26.7-30.109 110.33-2.3114 202.76 26.6-57.606-35.342-114.3-55.109-170.37-55.441zm-161.25 27.004c-0.9605-0.029-1.9432 0.1737-2.8614 0.6367-52.275 26.491-87.826 50.37-111.65 81.637-23.803 31.241-35.623 69.392-40.338 124.25-5.1874 13.655-7.3853 27.558-7.0196 41.658 0.3908 15.131 3.7239 30.448 9.4473 45.912 0.8366 2.872 3.7161 4.7213 6.7344 4.207 3.2469-0.5531 5.43-3.6379 4.8769-6.8848-3.0297-17.742-3.8032-34.37-1.8066-49.623 1.648-12.586 5.2016-24.289 10.945-34.953 49.863-22.839 84.076-44.565 106.04-73.066h0.01c24.28-31.502 33.273-70.662 31.406-127.83 0-0.8994-0.2028-1.8148-0.6348-2.6719-1.0191-2.0193-3.0314-3.2084-5.1445-3.2734zm-614.98 0c-2.1131 0.065-4.1254 1.2542-5.1445 3.2735-0.432 0.8571-0.63248 1.7724-0.63476 2.6718-1.867 57.168 7.1262 96.328 31.406 127.83h0.006c21.963 28.501 56.176 50.227 106.04 73.066 5.7437 10.664 9.2973 22.367 10.945 34.953 1.9966 15.253 1.2228 31.881-1.8066 49.623-0.5534 3.2469 1.63 6.3317 4.8769 6.8848 3.0183 0.5143 5.8978-1.3351 6.7344-4.2071 5.7234-15.464 9.0564-30.781 9.4472-45.912 0.3657-14.1-1.8321-28.003-7.0195-41.658-4.715-54.858-16.535-93.009-40.338-124.25-23.824-31.267-59.375-55.146-111.65-81.637-0.91822-0.4631-1.9008-0.666-2.8613-0.6367zm431.42 757.24c3.4671 0.038 7.1348 0.9141 10.902 2.877 2.4297 1.2651 4.9078 2.9773 7.4004 5.1933 6.7611 6.0126 13.982 11.598 21.158 17.146 10.992 8.5006 21.895 16.929 30.883 26.873 19.384 21.439 34.856 46.074 45.373 72.93 10.114 25.823 15.635 53.723 15.635 82.834 0 66.431-28.798 126.64-75.412 170.41-46.081 43.274-109.56 70.492-179.87 71.891-70.311-1.3989-133.79-28.616-179.87-71.891-46.614-43.77-75.412-103.98-75.412-170.41 0-29.111 5.5208-57.011 15.635-82.834 10.517-26.856 25.989-51.491 45.373-72.93 8.988-9.944 19.891-18.372 30.883-26.873 7.176-5.549 14.397-11.134 21.158-17.146 2.4926-2.216 4.9706-3.9282 7.4003-5.1933 6.028-3.1406 11.803-3.4957 16.904-2.0957 5.2644 1.4457 9.9731 4.7674 13.621 8.8691 1.8777 2.1131 3.4428 4.3837 4.6348 6.666l-0.02 0.01c5.3567 10.286 9.5764 23.208 10.279 35.006 0.536 9.0009-0.9674 17.208-5.6485 22.633-3.4743 4.0253-7.2845 7.8925-11.088 11.752h0.012c-6.917 7.022-13.832 14.039-19.389 22.51-8.369 12.757-14.969 26.82-19.43 41.814-4.3166 14.508-6.6387 29.872-6.6387 45.754 0 43.348 17.224 82.647 45.137 111.31 27.286 28.025 64.815 45.864 106.46 47.363 41.646-1.4989 79.174-19.338 106.46-47.363 27.913-28.662 45.137-67.961 45.137-111.31 0-15.882-2.322-31.246-6.6386-45.754-4.4606-14.994-11.061-29.057-19.43-41.814-5.5566-8.4709-12.472-15.488-19.389-22.51h0.012c-3.8034-3.8594-7.6136-7.7266-11.088-11.752-4.6811-5.4251-6.1844-13.632-5.6484-22.633 0.7029-11.798 4.9225-24.72 10.279-35.006l-0.019-0.01c1.192-2.2823 2.757-4.5529 4.6347-6.666 3.648-4.1017 8.3567-7.4234 13.621-8.8691 1.9132-0.525 3.9217-0.8042 6.002-0.7813zm-257.63 154c4.9064 5.834 9.3036 12.079 13.445 17.943 10.007 14.171 18.71 26.48 30.344 28.728-1.0274 12.172-0.3811 22.704 1.9492 31.576 2.68 10.197 7.5502 18.26 14.602 24.184 6.962 5.8467 15.939 9.4709 26.922 10.865 12.714 1.6124 28.192 0.2094 46.432-4.1973 18.24 4.4067 33.718 5.8097 46.432 4.1973 10.983-1.3943 19.96-5.0185 26.922-10.865 7.0514-5.9234 11.922-13.987 14.602-24.184 2.3303-8.872 2.9766-19.404 1.9492-31.576 11.634-2.248 20.337-14.558 30.344-28.728 4.1417-5.864 8.5389-12.109 13.445-17.943 3.888 13.24 5.9805 27.283 5.9805 41.838 0 40.134-15.922 76.499-41.728 103-25.136 25.814-59.654 42.275-97.945 43.764-38.291-1.4884-72.81-17.949-97.945-43.764-25.806-26.501-41.728-62.866-41.728-103 0-14.555 2.0924-28.598 5.9804-41.838zm133.69 9.1973c12.149 1.2624 24.752 4.6902 37.539 10.287 13.279 5.8126 26.762 13.971 40.137 24.457 1.376 12.383 0.9501 22.797-1.2637 31.227-2.0366 7.7486-5.6145 13.775-10.727 18.07-5.2046 4.3714-12.131 7.1091-20.764 8.2051-11.864 1.507-26.848-0.056-44.922-4.668-18.074 4.612-33.058 6.175-44.922 4.668-8.633-1.096-15.559-3.8337-20.764-8.2051-5.1121-4.295-8.6899-10.322-10.726-18.07-2.2138-8.43-2.6397-18.844-1.2637-31.227 13.375-10.486 26.858-18.644 40.137-24.457 12.787-5.5969 25.39-9.0247 37.539-10.287z" transform="translate(0 -102.85)"/>
</g>
</g>
</svg>
